<?xml version="1.0" encoding="UTF-8"?>
<svg width="1000px" height="321px" viewBox="0 0 1000 321" version="1.1" xmlns="http://www.w3.org/2000/svg" xmlns:xlink="http://www.w3.org/1999/xlink">
    <!-- Generator: Sketch 52.1 (67048) - http://www.bohemiancoding.com/sketch -->
    <title>Artboard</title>
    <desc>Created with Sketch.</desc>
    <g id="Artboard" stroke="none" stroke-width="1" fill="none" fill-rule="evenodd" stroke-linecap="round" stroke-linejoin="round">
        <g id="8ch" transform="translate(86.000000, 28.000000)" stroke="#000D99" stroke-width="13.2199">
            <path d="M162.474545,39.2859565 C162.462109,33.4224008 161.5068,28.4224054 159.608455,24.2859565 M160.5415,24.2859565 C159.01453,20.0095079 157.347908,16.6761651 155.5415,14.2859565 M155.5415,15.2859565 C153.57716,13.0197166 151.243827,11.0197166 148.5415,9.28595651 M148.5415,9.28595651 C146.060524,7.46906112 142.393858,5.80238974 137.5415,4.28595651 M137.5415,4.28595651 C132.35415,2.82387861 126.687483,1.82387861 120.5415,1.28595651 M120.5415,0.571913024 C114.511242,0.141800333 108.177927,-0.0457160152 101.5415,0.00938579838 M101.5415,0.541498392 C95.0228055,0.596643842 89.3561343,1.09294198 84.5415001,2.03041463 M84.5415001,2.28595651 C79.8498233,3.33536425 75.1831479,4.66868945 70.5415001,6.28595651 M70.5415001,7.28595651 C65.6009583,8.97941952 59.6009536,11.3127486 52.5415001,14.2859565 M52.5415001,14.2859565 C45.583732,17.4803981 39.2504079,20.8137314 33.5415001,24.2859565 M33.5415001,24.2859565 C27.8924854,27.6873226 22.89249,31.3539937 18.5415001,35.2859565 M18.5415001,35.2859565 C14.1330773,39.4071785 10.4664152,43.4071785 7.54150008,47.2859565 M8.54150008,46.2859565 C5.51974604,49.9782126 3.51975082,52.9781991 2.54150008,55.2859565 M2.03721091,55.2859565 C0.920523726,57.5936402 0.256716509,60.5936357 0.0457892538,64.2859565 M0.559249279,65.2859565 C0.393580818,68.9126742 1.38765585,71.9126654 3.54150008,74.2859565 M3.54150008,74.2859565 C5.90263604,76.6728947 9.23596468,79.0062457 13.5415001,81.2859565 M13.5415001,81.2859565 C17.6328802,83.6192446 22.6328802,85.9526684 28.5415001,88.2859565 M28.5415001,88.2859565 C34.5492498,90.5583547 42.5492589,93.2250214 52.5415001,96.2859565 M52.5415001,96.2859565 C62.6599604,99.3736675 71.659965,102.373623 79.5415001,105.285957 M79.5415001,105.285957 C87.4493887,108.261146 95.1160462,111.594525 102.5415,115.285957 M102.5415,115.285957 C109.66767,119.111766 115.334284,122.445052 119.5415,125.285957 M119.5415,125.285957 C123.763708,128.018184 127.763708,131.01823 131.5415,134.285957 M131.5415,134.285957 C135.510631,137.708131 139.177298,141.37494 142.5415,145.285957 M142.5415,144.285957 C145.901925,148.110169 148.901925,152.110169 151.5415,156.285957 M151.5415,156.285957 C153.95315,160.384775 155.953107,164.717972 157.5415,169.285957 M157.5415,169.285957 C159.297856,173.890021 160.631189,178.556688 161.5415,183.285957 M162.083,183.285957 C163.137636,187.991793 163.776636,193.991793 164,201.285957 M163.807598,201.285957 C164.030961,208.69105 163.503561,214.691096 162.225561,219.285957 M162.5415,218.285957 C161.400967,222.827652 159.734203,227.160939 157.5415,231.285957 M157.5415,232.285957 C155.524011,236.267705 153.190723,239.934371 150.5415,243.285957 M150.5415,243.285957 C147.785325,246.718505 144.785325,249.718505 141.5415,252.285957 M141.5415,251.285957 C138.328906,253.987663 134.995572,256.320949 131.5415,258.285957 M131.5415,259.285957 C128.019461,260.957212 124.3527,262.290545 120.5415,263.285957 M121.5415,263.442247 C117.752842,264.335593 113.08611,264.898066 107.5415,265.129666 M107.5415,265.563502 C102.153269,265.795102 97.8199355,265.580084 94.5415001,264.918338 M94.5415001,264.285957 C91.2163135,263.459503 88.2163135,261.792837 85.5415001,259.285957 M85.5415001,259.285957 C82.9203586,256.682337 80.5870343,253.348956 78.5415001,249.285957 M78.5415001,249.285957 C76.3737722,245.4522 74.707096,241.118778 73.5415001,236.285957 M74.2884254,236.285957 C72.9608601,231.258427 72.1295711,225.591622 71.7945747,219.285957 M70.5415001,225.285957 C70.9544951,209.78586 72.6211618,193.785957 75.5415001,177.285957 M75.5415001,177.285957 C77.511653,169.681468 79.844982,162.348225 82.5415001,155.285957 M82.5415001,155.285957 C85.3841551,148.280279 88.3841597,141.946946 91.5415001,136.285957 M91.5415001,135.285957 C94.6714704,129.45496 97.6714567,124.455005 100.5415,120.285957 M100.5415,121.285957 C103.498623,117.057379 106.498604,113.390619 109.5415,110.285957 M109.5415,110.285957 C112.445283,107.23062 115.778706,104.230665 119.5415,101.285957 M119.5415,101.285957 C123.226118,98.3428968 127.226074,95.6763213 131.5415,93.2859565 M131.5415,93.2859565 C136.124753,91.0170817 140.458086,89.0171249 144.5415,87.2859565 M144.5415,87.2859565 C148.704125,85.4526003 151.370744,84.1191754 152.5415,83.2859565 M152.036446,82.7822656 C152.706536,82.4513929 153.376464,82.1205202 154.046555,81.7896475" id="Stroke-64"></path>
            <path d="M194.517899,122 C193.910119,121.722775 193.302339,121.44555 192.694677,121.168206 M192.694677,121.168206 C191.478999,120.613757 191.85892,119.59512 193.834205,118.112414 M193.834205,118.112414 C195.809373,116.629828 198.56678,115.189213 202.106191,113.790807 M202.106191,113.790807 C205.645603,112.392521 209.895584,111.006278 214.856135,109.632078 M214.856135,109.632078 C219.816686,108.257877 226.69877,106.67871 235.502623,104.894693 M235.502623,104.894693 C244.306476,103.110558 251.519326,101.778568 257.141292,100.898602 M257.141292,100.898602 C262.763258,100.018637 267.978544,99.4821923 272.78715,99.2892677 M272.78715,99.2892677 C275.191394,99.1928054 277.595756,99.0964623 280,99" id="Stroke-65"></path>
            <path d="M243.896426,76.3741031 C242.552339,76.2666416 241.20837,76.1592037 239.864401,76.0518012 M239.864401,76.0518012 C237.176345,75.8369372 235.403662,76.2904905 234.546353,77.4124845 M234.546353,77.4124845 C233.689044,78.5344667 232.778146,81.5244161 231.813659,86.3822856 M231.813659,86.3822856 C230.849172,91.2403675 229.991863,96.6354028 229.241732,102.56751 M229.241732,102.56751 C228.491602,108.499616 227.835223,116.735498 227.272595,127.27492 M228.036363,127.27492 C227.906082,144.065648 227.8244,160.181316 227.791318,175.622112 M226,176.850898 C226,179.978049 226.759082,181.750538 228.277245,182.168365 M228.277245,182.168365 C229.795526,182.586074 233.180006,180.007919 238.431038,174.433899 M238.431038,174.433899 C243.682069,168.859761 248.281198,164.527063 252.228422,161.435685 M252.228422,161.435685 C256.175647,158.344189 259.76565,156.088347 262.998314,154.667924 M262.998314,154.667924 C266.231213,153.2475 269.49073,152.280795 272.7771,151.767573 M272.7771,151.767573 C276.06347,151.254232 279.327581,150.997562 282.569195,150.997562 M282.569195,150.997562 C285.810927,150.997562 288.239989,151.606416 289.856379,152.823888 M289.856379,152.823888 C291.47277,154.041242 292.861495,155.718336 294.022319,157.854815 M294.022319,157.854815 C295.18326,159.991412 295.991456,162.605341 296.446905,165.696837 M296.446905,165.696837 C296.902472,168.788215 297.076548,173.341811 296.96937,179.357506 M296.96937,179.357506 C296.862191,185.373202 296.22819,190.839902 295.067249,195.757488 M295.067249,195.757488 C293.906307,200.675074 292.468469,205.521114 290.753851,210.29537 M290.753851,210.29537 C289.039233,215.069745 285.904679,222.953444 281.350189,233.946466 M281.350189,233.946466 C276.795699,244.939488 274.46934,250.823897 274.37123,251.599811 M274.37123,251.599811 C274.272885,252.375607 274.679221,252.023423 275.590119,250.543495 M275.590119,250.543495 C276.045568,249.803473 276.501017,249.06345 276.956584,248.323309" id="Stroke-66"></path>
            <path d="M325.526187,213 C325.374179,212.016291 325.22217,211.032701 325.070162,210.048992 M325.070162,210.048992 C324.766144,208.081693 325.450124,206.16204 327.122218,204.290152 M327.122218,204.290152 C328.794312,202.418146 331.530466,200.337627 335.330679,198.048361 M335.330679,198.048361 C339.130893,195.759096 343.664262,193.30295 348.930786,190.679923 M348.930786,190.679923 C354.197546,188.056779 360.675775,185.225123 368.365592,182.18472 M368.365592,182.18472 C376.055408,179.144316 382.332453,176.992211 387.196608,175.728403 M387.196608,175.728403 C392.060882,174.464477 396.236577,173.683502 399.723929,173.385476 M399.723929,173.385476 C403.211045,173.08745 405.947199,172.962202 407.932272,173.009848 M407.932272,173.009848 C409.917346,173.057494 411.289904,173.659678 412.049947,174.816164 M412.049947,174.816164 C412.809989,175.972767 413.114006,177.719525 412.961998,180.056437 M412.961998,180.056437 C412.809989,182.39335 411.719042,184.998567 409.689392,187.872091 M409.689392,187.872091 C407.659506,190.745496 405.352608,193.374537 402.768463,195.759096 M402.768463,195.759096 C400.184318,198.143772 397.881901,199.872604 395.861095,200.945708 M395.861095,200.945708 C393.84029,202.018812 392.042957,202.227442 390.469214,201.571597 M390.469214,201.571597 C389.682402,201.243734 388.89559,200.91587 388.108778,200.588007" id="Stroke-67"></path>
            <path d="M395.648708,144 C395.755904,144.648829 395.862977,145.29754 395.970174,145.946487 M395.970174,145.946487 C396.184567,147.244027 395.243156,150.244066 393.145943,154.946369 M393.145943,154.946369 C392.097336,157.297579 391.04873,159.64879 390,162" id="Stroke-68"></path>
            <path d="M368.666924,146.226097 C367.822428,145.713141 366.977812,145.200186 366.133315,144.687112 M366.133315,144.687112 C364.444202,143.661202 362.601534,143.100455 360.60531,143.004992 M360.60531,143.004992 C358.609086,142.909646 357.759944,144.180175 358.05812,146.816579 M358.05812,146.816579 C358.356178,149.453102 359.173633,152.972398 360.510485,157.374468 M360.510485,157.374468 C361.847336,161.776539 363.048621,166.918247 364.114576,172.799592 M364.114576,172.799592 C365.180293,178.680938 366.101627,185.06332 366.878459,191.946858 M366.878459,191.946858 C367.655291,198.830278 368.219838,205.844916 368.572099,212.990891 M368.572099,212.990891 C368.924359,220.136747 369.154752,227.83745 369.26304,236.092763 M369.26304,236.092763 C369.371565,244.348194 369.574797,249.817948 369.872855,252.502143 M369.872855,252.502143 C370.170912,255.186338 370.599891,257.106941 371.159911,258.264188 M371.159911,258.264188 C371.43998,258.842753 371.719931,259.421435 372,260" id="Stroke-69"></path>
            <path d="M474.660937,121.217156 C474.768955,119.69283 474.233496,118.954463 473.054442,119.002172 M473.054442,119.002172 C471.875389,119.049763 469.931309,121.699545 467.222204,126.951518 M467.222204,126.951518 C464.513217,132.203491 461.813133,138.116437 459.12207,144.690357 M459.12207,144.690357 C456.431007,151.264276 454.167385,157.308215 452.331323,162.822174 M452.331323,162.822174 C450.495261,168.336134 448.965209,173.701312 447.741168,178.917474 M447.741168,178.917474 C446.517127,184.133754 445.599096,189.498933 444.987075,195.012892 M444.987075,195.012892 C444.375054,200.526851 444.046491,205.07615 444.001622,208.660907 M444.001622,208.660907 C443.956516,212.245546 444.852112,213.609193 446.688174,212.751731 M446.688174,212.751731 C448.524236,211.894268 451.503267,208.940799 455.625385,203.891205 M455.625385,203.891205 C459.747504,198.841729 462.879658,195.298674 465.021612,193.262156 M465.021612,193.262156 C467.163684,191.225756 469.049244,189.808628 470.678411,189.010654 M470.678411,189.010654 C472.307459,188.21268 473.787894,187.861402 475.119953,187.956702 M475.119953,187.956702 C476.452012,188.051884 478.616518,189.993102 481.61371,193.780356 M481.61371,193.780356 C484.610784,197.567492 487.229795,200.503056 489.470864,202.587165 M489.470864,202.587165 C491.712051,204.671274 494.31302,206.243308 497.274127,207.303268 M497.274127,207.303268 C500.235234,208.36311 503.398726,208.815696 506.76484,208.660907 M506.76484,208.660907 C510.130953,208.506001 513.038051,207.594939 515.486134,205.927723 M515.486134,205.927723 C517.934217,204.260389 520.913366,201.402219 524.423464,197.353097 M524.423464,197.353097 C527.933561,193.303857 531.061086,188.903456 533.806277,184.15166 M533.806277,184.15166 C536.55123,179.399863 538.769864,175.178047 540.461824,171.48621 M540.461824,171.48621 C541.307922,169.640292 542.153902,167.794256 543,165.948338" id="Stroke-70"></path>
            <path d="M617,42.7876266 C616.798079,42.3383962 616.596158,41.8891302 616.394119,41.4398405 M616.394119,41.4398405 C615.990396,40.5413797 614.244834,40.0622045 611.157671,40.0022914 M611.157671,40.0022914 C608.070508,39.9424019 606.064793,41.0565194 605.140408,43.3446557 M605.140408,43.3446557 C604.216022,45.6328513 603.628251,51.311356 603.376856,60.3801817 M603.376856,60.3801817 C603.125697,69.4490548 603,82.884611 603,100.686862 M603,100.686862 C603,118.489114 603.152565,131.888646 603.457695,140.885697 M603.457695,140.885697 C603.762825,149.882629 604.678215,162.779132 606.203865,179.575089 M606.203865,179.575089 C607.729515,196.371045 608.79747,208.357001 609.407612,215.532956 M609.407612,215.532956 C610.017872,222.70903 610.273646,226.195157 610.174935,225.991575" id="Stroke-71"></path>
            <path d="M577.717392,126.000931 C577.565129,125.492234 577.412867,124.983655 577.260604,124.474958 M577.260604,124.474958 C576.956079,123.457682 575.912684,122.847293 574.130302,122.643791 M574.130302,122.643791 C572.34792,122.440407 571.380597,125.462401 571.228335,131.709892 M571.228335,131.709892 C571.076072,137.957384 571,144.276616 571,150.667707 M571,150.667707 C571,157.058917 571.174588,162.44469 571.523883,166.825143 M571.523883,166.825143 C571.873177,171.205478 572.580862,176.423619 573.6467,182.479683 M573.6467,182.479683 C574.71242,188.535747 575.554412,189.804352 576.17244,186.285618 M576.17244,186.285618 C576.790468,182.766883 577.757672,178.745607 579.074289,174.221554 M579.074289,174.221554 C580.390906,169.6975 582.03898,164.969944 584.018276,160.039004 M584.018276,160.039004 C585.99769,155.108063 588.227883,150.506231 590.708854,146.233507 M590.708854,146.233507 C593.189943,141.960783 595.572398,138.603643 597.856337,136.162087 M597.856337,136.162087 C600.140158,133.72053 602.701808,131.488514 605.541051,129.465801 M605.541051,129.465801 C608.380294,127.443206 611.600135,125.516266 615.200691,123.685098 M615.200691,123.685098 C618.801247,121.853931 622.576509,120.226266 626.526241,118.801985 M626.526241,118.801985 C630.47621,117.377823 634.5873,116.234823 638.859513,115.372986 M638.859513,115.372986 C643.131725,114.511267 648.20565,114.056553 654.081167,114.008726 M654.081167,114.008726 C659.956803,113.96078 663.705133,114.110418 665.326275,114.457521 M665.326275,114.457521 C666.947299,114.804623 669.025229,116.019364 671.560065,118.101861 M671.560065,118.101861 C674.094664,120.184358 676.074078,122.727607 677.498307,125.731725 M677.498307,125.731725 C678.922299,128.735725 679.782128,133.182 680.077676,139.070432 M680.077676,139.070432 C680.373223,144.958864 680.422481,148.94427 680.225568,151.026767 M680.225568,151.026767 C680.028536,153.109382 679.173077,156.185241 677.659429,160.254463 M677.659429,160.254463 C676.14578,164.323684 673.991778,168.829743 671.197304,173.772641 M671.197304,173.772641 C668.40283,178.715656 665.711361,182.503596 663.122897,185.136699 M663.122897,185.136699 C660.534551,187.769682 658.299869,189.343601 656.418971,189.858099 M656.418971,189.858099 C654.538073,190.372833 653.221457,189.487201 652.469121,187.201201 M652.469121,187.201201 C651.716667,184.915202 651.416631,181.073396 651.568893,175.675667 M651.568893,175.675667 C651.721156,170.277938 652.554053,165.317046 654.067819,160.792993 M654.067819,160.792993 C655.581468,156.268939 657.457877,152.15781 659.697047,148.459605 M659.697047,148.459605 C661.936217,144.761399 664.475306,141.3324 667.314549,138.172843 M667.314549,138.172843 C670.153791,135.013168 673.069225,132.54166 676.06073,130.758438 M676.06073,130.758438 C679.052118,128.975098 681.815288,127.832098 684.350006,127.329439 M684.350006,127.329439 C686.884724,126.826779 689.522446,126.599363 692.263173,126.647309 M692.263173,126.647309 C695.0039,126.695136 699.822557,128.322801 706.719144,131.530422 M706.719144,131.530422 C713.615613,134.737924 718.886569,136.742525 722.532012,137.54446 M722.532012,137.54446 C724.354675,137.945427 726.177337,138.346394 728,138.747243" id="Stroke-72"></path>
            <path d="M793.253146,31.8315837 C793.17724,31.2743335 793.101217,30.7171188 793.025194,30.1599279 M793.025194,30.1599279 C792.873265,29.0454156 791.809883,28.33841 789.834812,28.0388755 M789.834812,28.0388755 C787.85974,27.7392818 788.570233,29.1712983 791.966173,32.3349248 M791.966173,32.3349248 C795.36223,35.4985514 797.842237,38.5004033 799.406194,41.3404805 M799.406194,41.3404805 C800.970151,44.1805696 801.980022,46.6910878 802.435808,48.8720589 M802.435808,48.8720589 C802.891593,51.053101 803.097151,54.1328532 803.05248,58.1113273 M803.05248,58.1113273 C803.007809,62.0898606 802.42685,65.5530808 801.309839,68.5009881 M801.309839,68.5009881 C800.19271,71.4488953 798.239915,75.2416746 795.451572,79.8793141 M795.451572,79.8793141 C792.663229,84.5168942 789.678286,88.9747064 786.496744,93.2529401 M786.496744,93.2529401 C783.315202,97.5309367 780.334738,101.113971 777.555353,104.001924 M777.555353,104.001924 C774.775967,106.889995 772.497156,109.023126 770.718567,110.401198 M770.718567,110.401198 C768.940213,111.77927 767.59525,112.618132 766.683679,112.917785 M766.683679,112.917785 C765.772107,113.217319 765.772107,112.731924 766.683679,111.461718 M766.683679,111.461718 C767.59525,110.191393 769.29322,109.2807 771.777588,108.729518 M771.777588,108.729518 C774.262074,108.178218 777.577747,108.004448 781.724489,108.208207 M781.724489,108.208207 C785.871232,108.411967 789.615818,109.478532 792.958128,111.407785 M792.958128,111.407785 C796.300557,113.337157 799.638625,115.829682 802.972095,118.885478 M802.972095,118.885478 C806.305566,121.941275 809.589887,125.452477 812.825058,129.418968 M812.825058,129.418968 C816.060229,133.385458 818.491086,136.950593 820.11763,140.114137 M820.11763,140.114137 C821.744055,143.277799 823.035507,146.585243 823.991749,150.036467 M823.991749,150.036467 C824.947992,153.487692 825.524354,157.933651 825.720954,163.374106 M825.720954,163.374106 C825.917671,168.814562 825.49312,173.290391 824.447417,176.801476 M824.447417,176.801476 C823.401951,180.312678 821.784365,183.674054 819.594779,186.885604 M819.594779,186.885604 C817.405192,190.097154 814.996729,192.997197 812.369272,195.585616 M812.369272,195.585616 C809.741816,198.174034 807.06073,200.385042 804.326016,202.21852 M804.326016,202.21852 C801.591302,204.051998 798.329257,205.507946 794.540001,206.586365 M794.540001,206.586365 C790.750744,207.664902 787.287739,208.126353 784.150868,207.970482 M784.150868,207.970482 C781.013997,207.814729 778.663524,207.095822 777.099685,205.813526 M777.099685,205.813526 C775.53561,204.531229 774.092348,202.571987 772.769661,199.935562 M772.769661,199.935562 C771.446975,197.299256 770.758877,193.895919 770.705248,189.72567 M770.705248,189.72567 C770.651619,185.55542 771.688364,181.912526 773.815364,178.796752 M773.815364,178.796752 C775.942246,175.681096 778.574182,172.906935 781.711053,170.47427 M781.711053,170.47427 C784.847924,168.041605 788.163597,166.010413 791.657954,164.380694 M791.657954,164.380694 C795.152312,162.750975 799.374959,161.217032 804.326016,159.779101 M804.326016,159.779101 C809.277072,158.341051 813.678522,156.86104 817.530365,155.339187 M817.530365,155.339187 C821.382208,153.817215 824.090049,152.64883 825.654006,151.83403 M825.654006,151.83403 C826.436043,151.426629 827.217963,151.019111 828,150.611711" id="Stroke-73"></path>
        </g>
    </g>
</svg>